<svg width="38" height="14" viewBox="0 0 38 14" fill="none" xmlns="http://www.w3.org/2000/svg">
    <path d="M11.0137 0.00292969C14.8268 0.0772199 17.8954 3.18059 17.8955 7C17.8955 10.8195 14.8269 13.9218 11.0137 13.9961V14H0V10.1572H11.0127V10.1533C12.6967 10.0805 14.0399 8.69776 14.04 7.00098C14.04 5.30405 12.6968 3.91948 11.0127 3.84668V3.84375H4.60742L4.6084 3.84277H0V0H11.0137V0.00292969Z" fill="black" style="fill:black;fill-opacity:1;"/>
    <path d="M26.9863 0.00292969C23.1723 0.0761944 20.1026 3.17993 20.1025 7C20.1025 10.8201 23.1722 13.9228 26.9863 13.9961V14H38V10.1572H26.9854V10.1533C25.3004 10.0815 23.9562 8.69842 23.9561 7.00098C23.9561 5.30339 25.3003 3.91848 26.9854 3.84668V3.84375H33.3906L33.3896 3.84277H38V0H26.9863V0.00292969Z" fill="black" style="fill:black;fill-opacity:1;"/>
    <path d="M33.5931 5.07861H37.9987V8.92185H29.7383L31.6657 7.00023L33.5931 5.07861Z" fill="black" style="fill:black;fill-opacity:1;"/>
    <path d="M0 5.07861H4.40554V8.92185H0V5.07861Z" fill="black" style="fill:black;fill-opacity:1;"/>
</svg>
